<svg width="38" height="38" viewBox="0 0 38 38" fill="none" xmlns="http://www.w3.org/2000/svg">
<g filter="url(#filter0_d)">
<path d="M8.98442 26.6568C8.87549 26.5477 8.72431 26.4851 8.57021 26.4851C8.4161 26.4851 8.26492 26.5477 8.15594 26.6568C8.04695 26.7658 7.98425 26.917 7.98425 27.0711C7.98425 27.2252 8.04689 27.3763 8.15594 27.4853C8.26492 27.5943 8.4161 27.657 8.57021 27.657C8.72431 27.657 8.87549 27.5943 8.98442 27.4853C9.0934 27.3763 9.15616 27.2252 9.15616 27.0711C9.15616 26.917 9.09346 26.7658 8.98442 26.6568Z" fill="#FFBB01"/>
<path d="M31.5116 10.7193C31.4026 10.6102 31.252 10.5476 31.0973 10.5476C30.9432 10.5476 30.792 10.6102 30.683 10.7193C30.5741 10.8283 30.5114 10.9795 30.5114 11.1336C30.5114 11.2877 30.574 11.4388 30.683 11.5478C30.792 11.6568 30.9432 11.7195 31.0973 11.7195C31.252 11.7195 31.4026 11.6568 31.5116 11.5478C31.6211 11.4388 31.6838 11.2877 31.6838 11.1336C31.6838 10.9795 31.6211 10.8283 31.5116 10.7193Z" fill="#FFBB01"/>
<path d="M33.8284 0.171625C33.7185 0.0617594 33.5694 0 33.4139 0L18.9999 0.000761738C18.6763 0.000761738 18.414 0.263151 18.414 0.586714V2.26236L12.8598 3.75062C12.5472 3.83441 12.3617 4.15569 12.4454 4.46824L15.3241 15.2112L12.8338 17.7014C12.5169 17.2387 11.9847 16.9343 11.3828 16.9343H5.7578C4.78852 16.9343 4 17.7229 4 18.6921V28.2429C4 29.2122 4.78852 30.0008 5.7578 30.0008H11.3828C12.2063 30.0008 12.899 29.4314 13.0888 28.666L13.7855 29.2735C14.3234 29.7425 15.0124 30.0008 15.7261 30.0008H33.414C33.7376 30.0008 34 29.7384 34 29.4149V0.585952C33.9999 0.430558 33.9382 0.281491 33.8284 0.171625ZM11.9687 28.243C11.9687 28.566 11.7058 28.8289 11.3827 28.8289H5.75774C5.43465 28.8289 5.17179 28.5661 5.17179 28.243V18.6922C5.17179 18.3691 5.43465 18.1062 5.75774 18.1062H7.9843V24.8561C7.9843 25.1797 8.24669 25.4421 8.57025 25.4421C8.89382 25.4421 9.1562 25.1797 9.1562 24.8561V18.1062H11.3828C11.7059 18.1062 11.9687 18.3691 11.9687 18.6922V28.243H11.9687ZM13.729 4.73092L18.414 3.47558V5.64682L18.0213 5.75206C17.8711 5.79231 17.7432 5.89046 17.6655 6.02505C17.5878 6.15965 17.5667 6.31955 17.6069 6.46968C17.8321 7.30999 17.3316 8.17679 16.4913 8.40197C16.341 8.44228 16.2129 8.54061 16.1352 8.67549C16.0576 8.81032 16.0367 8.97052 16.0773 9.12076L18.3613 17.5783H17.1853L16.5792 15.2073C16.5599 15.1318 16.5262 15.0623 16.481 15.0018L13.729 4.73092ZM18.414 8.33394V13.2783L17.3452 9.32104C17.7917 9.09052 18.157 8.74563 18.414 8.33394ZM26.832 28.8289H15.726C15.2956 28.8289 14.88 28.6731 14.5556 28.3903L13.1406 27.1562V19.0521L15.6987 16.4939L16.1627 18.3092C16.229 18.5686 16.4626 18.75 16.7303 18.75L28.2504 18.7507C28.7028 18.7507 29.0707 19.1187 29.0707 19.571C29.0707 20.0234 28.7028 20.3914 28.2504 20.3914H22.3475C22.024 20.3914 21.7616 20.6538 21.7616 20.9773C21.7616 21.3009 22.024 21.5633 22.3475 21.5633H30.0844C30.5368 21.5633 30.9048 21.9313 30.9048 22.3836C30.9048 22.836 30.5368 23.2039 30.0844 23.2039H22.3475C22.024 23.2039 21.7616 23.4663 21.7616 23.7899C21.7616 24.1135 22.024 24.3759 22.3475 24.3759H28.8307C29.283 24.3759 29.651 24.7438 29.651 25.1962C29.651 25.6485 29.283 26.0165 28.8307 26.0165H22.3475C22.024 26.0165 21.7616 26.2789 21.7616 26.6025C21.7616 26.926 22.024 27.1884 22.3475 27.1884H26.832C27.2843 27.1884 27.6523 27.5564 27.6523 28.0088C27.6523 28.4609 27.2843 28.8289 26.832 28.8289ZM32.8281 28.8289H32.828H28.6467C28.7604 28.5785 28.8242 28.3009 28.8242 28.0085C28.8242 27.7161 28.7604 27.4386 28.6467 27.1882H28.8307C29.9292 27.1882 30.8228 26.2945 30.8228 25.196C30.8228 24.8756 30.7464 24.5728 30.6114 24.3044C31.4549 24.0727 32.0766 23.2995 32.0766 22.3835C32.0766 21.9391 31.9302 21.5283 31.6833 21.1966V13.7703C31.6833 13.4467 31.4209 13.1843 31.0974 13.1843C30.7738 13.1843 30.5114 13.4467 30.5114 13.7703V20.438C30.3737 20.4078 30.2309 20.3914 30.0843 20.3914H30.0651C30.1787 20.141 30.2425 19.8634 30.2425 19.571C30.2425 18.4725 29.3488 17.5789 28.2503 17.5789H27.3084C28.3086 17.1499 29.011 16.1558 29.011 15.0004C29.011 13.4541 27.7531 12.1961 26.2068 12.1961C24.6606 12.1961 23.4026 13.4541 23.4026 15.0004C23.4026 16.1558 24.1051 17.1499 25.1052 17.5789H21.9023V6.43745C22.949 6.20934 23.775 5.38344 24.003 4.33663H28.4106C28.6387 5.38344 29.4646 6.20934 30.5114 6.43745V8.25917C30.5114 8.58274 30.7737 8.84513 31.0973 8.84513C31.4209 8.84513 31.6833 8.58274 31.6833 8.25917V5.91431C31.6833 5.59075 31.4209 5.32836 31.0973 5.32836C30.2273 5.32836 29.5197 4.62059 29.5197 3.75068C29.5197 3.42712 29.2573 3.16473 28.9337 3.16473H23.4799C23.1564 3.16473 22.894 3.42712 22.894 3.75068C22.894 4.62064 22.1863 5.32836 21.3164 5.32836C20.9928 5.32836 20.7304 5.59075 20.7304 5.91431V17.5788H19.5859V1.17255L32.8281 1.1719V28.8289ZM26.207 16.6327C25.3069 16.6327 24.5747 15.9005 24.5747 15.0004C24.5747 14.1004 25.3069 13.3681 26.207 13.3681C27.107 13.3681 27.8392 14.1004 27.8392 15.0004C27.8392 15.9004 27.107 16.6327 26.207 16.6327Z" fill="#FFBB01"/>
</g>
<defs>
<filter id="filter0_d" x="0" y="0" width="38" height="38.0008" filterUnits="userSpaceOnUse" color-interpolation-filters="sRGB">
<feFlood flood-opacity="0" result="BackgroundImageFix"/>
<feColorMatrix in="SourceAlpha" type="matrix" values="0 0 0 0 0 0 0 0 0 0 0 0 0 0 0 0 0 0 127 0"/>
<feOffset dy="4"/>
<feGaussianBlur stdDeviation="2"/>
<feColorMatrix type="matrix" values="0 0 0 0 0 0 0 0 0 0 0 0 0 0 0 0 0 0 0.25 0"/>
<feBlend mode="normal" in2="BackgroundImageFix" result="effect1_dropShadow"/>
<feBlend mode="normal" in="SourceGraphic" in2="effect1_dropShadow" result="shape"/>
</filter>
</defs>
</svg>
